<?xml version="1.0" encoding="UTF-8"?>
<mxfile host="Electron" agent="Mozilla/5.0 (Windows NT 10.0; Win64; x64) AppleWebKit/537.36 (KHTML, like Gecko) draw.io/26.0.9 Chrome/128.0.6613.186 Electron/32.2.5 Safari/537.36" version="26.0.9">
  <diagram name="PÃ¡gina-1" id="Ki_rNH3ttH0F2i1-WapN">
    <mxGraphModel dx="482" dy="613" grid="1" gridSize="10" guides="1" tooltips="1" connect="1" arrows="1" fold="1" page="1" pageScale="1" pageWidth="827" pageHeight="1169" math="0" shadow="0">
      <root>
        <mxCell id="0" />
        <mxCell id="1" parent="0" />
        <mxCell id="oOK5K-sXjssoi7FxUGHL-3" value="" style="edgeStyle=orthogonalEdgeStyle;rounded=0;orthogonalLoop=1;jettySize=auto;html=1;" edge="1" parent="1" source="oOK5K-sXjssoi7FxUGHL-1" target="oOK5K-sXjssoi7FxUGHL-2">
          <mxGeometry relative="1" as="geometry" />
        </mxCell>
        <mxCell id="oOK5K-sXjssoi7FxUGHL-1" value="Inicio" style="ellipse;whiteSpace=wrap;html=1;" vertex="1" parent="1">
          <mxGeometry x="220" y="60" width="70" height="30" as="geometry" />
        </mxCell>
        <mxCell id="oOK5K-sXjssoi7FxUGHL-5" value="" style="edgeStyle=orthogonalEdgeStyle;rounded=0;orthogonalLoop=1;jettySize=auto;html=1;" edge="1" parent="1" source="oOK5K-sXjssoi7FxUGHL-2" target="oOK5K-sXjssoi7FxUGHL-4">
          <mxGeometry relative="1" as="geometry" />
        </mxCell>
        <mxCell id="oOK5K-sXjssoi7FxUGHL-2" value="Leer N" style="shape=parallelogram;perimeter=parallelogramPerimeter;whiteSpace=wrap;html=1;fixedSize=1;" vertex="1" parent="1">
          <mxGeometry x="210" y="120" width="90" height="30" as="geometry" />
        </mxCell>
        <mxCell id="oOK5K-sXjssoi7FxUGHL-7" value="" style="edgeStyle=orthogonalEdgeStyle;rounded=0;orthogonalLoop=1;jettySize=auto;html=1;" edge="1" parent="1" source="oOK5K-sXjssoi7FxUGHL-4" target="oOK5K-sXjssoi7FxUGHL-6">
          <mxGeometry relative="1" as="geometry" />
        </mxCell>
        <mxCell id="oOK5K-sXjssoi7FxUGHL-4" value="Inicializar Suma = 0" style="whiteSpace=wrap;html=1;" vertex="1" parent="1">
          <mxGeometry x="195" y="180" width="120" height="35" as="geometry" />
        </mxCell>
        <mxCell id="oOK5K-sXjssoi7FxUGHL-9" value="Si" style="edgeStyle=orthogonalEdgeStyle;rounded=0;orthogonalLoop=1;jettySize=auto;html=1;" edge="1" parent="1" source="oOK5K-sXjssoi7FxUGHL-6" target="oOK5K-sXjssoi7FxUGHL-8">
          <mxGeometry relative="1" as="geometry" />
        </mxCell>
        <mxCell id="oOK5K-sXjssoi7FxUGHL-12" value="" style="edgeStyle=orthogonalEdgeStyle;rounded=0;orthogonalLoop=1;jettySize=auto;html=1;" edge="1" parent="1" source="oOK5K-sXjssoi7FxUGHL-6" target="oOK5K-sXjssoi7FxUGHL-11">
          <mxGeometry relative="1" as="geometry">
            <Array as="points">
              <mxPoint x="340" y="294" />
              <mxPoint x="340" y="460" />
              <mxPoint x="255" y="460" />
            </Array>
          </mxGeometry>
        </mxCell>
        <mxCell id="oOK5K-sXjssoi7FxUGHL-6" value="&quot;Para i desde 1 hasta N&quot;" style="rhombus;whiteSpace=wrap;html=1;" vertex="1" parent="1">
          <mxGeometry x="200" y="250" width="110" height="87.5" as="geometry" />
        </mxCell>
        <mxCell id="oOK5K-sXjssoi7FxUGHL-8" value="Suma = Suma + i" style="whiteSpace=wrap;html=1;" vertex="1" parent="1">
          <mxGeometry x="195" y="380" width="120" height="28.75" as="geometry" />
        </mxCell>
        <mxCell id="oOK5K-sXjssoi7FxUGHL-10" value="" style="endArrow=classic;html=1;rounded=0;exitX=0.5;exitY=1;exitDx=0;exitDy=0;entryX=0;entryY=0.5;entryDx=0;entryDy=0;" edge="1" parent="1" source="oOK5K-sXjssoi7FxUGHL-8" target="oOK5K-sXjssoi7FxUGHL-6">
          <mxGeometry width="50" height="50" relative="1" as="geometry">
            <mxPoint x="140" y="550" as="sourcePoint" />
            <mxPoint x="110" y="440" as="targetPoint" />
            <Array as="points">
              <mxPoint x="255" y="440" />
              <mxPoint x="160" y="440" />
              <mxPoint x="160" y="294" />
            </Array>
          </mxGeometry>
        </mxCell>
        <mxCell id="oOK5K-sXjssoi7FxUGHL-14" value="" style="edgeStyle=orthogonalEdgeStyle;rounded=0;orthogonalLoop=1;jettySize=auto;html=1;" edge="1" parent="1" source="oOK5K-sXjssoi7FxUGHL-11" target="oOK5K-sXjssoi7FxUGHL-13">
          <mxGeometry relative="1" as="geometry" />
        </mxCell>
        <mxCell id="oOK5K-sXjssoi7FxUGHL-11" value="Escribir &quot;La suma es&quot;, Suma" style="whiteSpace=wrap;html=1;" vertex="1" parent="1">
          <mxGeometry x="195" y="500" width="120" height="40" as="geometry" />
        </mxCell>
        <mxCell id="oOK5K-sXjssoi7FxUGHL-13" value="Fin" style="ellipse;whiteSpace=wrap;html=1;" vertex="1" parent="1">
          <mxGeometry x="230" y="570" width="50" height="30" as="geometry" />
        </mxCell>
      </root>
    </mxGraphModel>
  </diagram>
</mxfile>
